# xmcd
#
# Track frame offsets:
# 150
# 14245
# 33385
# 43455
# 58368
# 69002
# 84352
# 100595
# 113472
# 127590
# 144788
# 161128
# 174367
# 185997
# 203443
# 225213
# 246111
# 254304
# 267279
#
# Disc length: 3725 seconds
#
#
# Revision: 0
# Processed by: cddbd v1.5.2PL0 Copyright (c) Steve Scherf et al.
# Submitted via: FreeRIP 2.951 
#
DISCID=f60e8b13
DTITLE=Various Artist - Beat Box CD5
DYEAR=1900
DGENRE=Blues
TTITLE0=Carl Douglas - Kung Fu Fighting 1974
TTITLE1=Disco Tex and His Sex-O-Lettes 1974
TTITLE2=Gerry and The Pacemakers - I Like It 1963
TTITLE3=George McCrae - Rock Your Baby 1974
TTITLE4=Sandie Shaw - Puppet On A String 1967
TTITLE5=Harpo - Motorcycle Mama 1976
TTITLE6=Beach Boys (The) - Good Vibrations 1967
TTITLE7=Racey - Boy Oh Boy 1979
TTITLE8=Tremeloes (The) - Silence Is Golden 1967
TTITLE9=Nitty Gritty Dirt Band - All I Have To Do Is Dream 1975
TTITLE10=Gene Pitney - Something's Gotten Hold Of My Heart 1967
TTITLE11=Herman's Hermits - No Milk Today 1966
TTITLE12=Kenny - The Bump 1974
TTITLE13=Golden Earring - Bombay 1976
TTITLE14=First Class - Beach Baby 1974
TTITLE15=Hawkwind - Silver Machine 1972
TTITLE16=Shirley Bassey - Big Spender 1967
TTITLE17=Hollies (The) - Bus Stop 1966
TTITLE18=Lulu - I'm A Tiger
EXTD=
EXTT0=
EXTT1=
EXTT2=
EXTT3=
EXTT4=
EXTT5=
EXTT6=
EXTT7=
EXTT8=
EXTT9=
EXTT10=
EXTT11=
EXTT12=
EXTT13=
EXTT14=
EXTT15=
EXTT16=
EXTT17=
EXTT18=
PLAYORDER=
